<svg id="e9xhMoefzqG1" xmlns="http://www.w3.org/2000/svg" xmlns:xlink="http://www.w3.org/1999/xlink" viewBox="0 0 2000 2000" shape-rendering="geometricPrecision" text-rendering="geometricPrecision" project-id="1ef56ddf04c94518a1a93da86745fae5" export-id="24ccea4a8bdc49a192923ce87e314757" cached="false"><path d="M0,0h20L37,5l16,9L66,24L82,40L94,57l10,18l9,23l6,22l4,24v37l-4,21-7,21-8,17-8,12-13,15-12,11-15,10-17,8-20,6-16,3-17,1-1-1-5-33-7-27-7-20-11-25-1-3h-2l-3,14-7,27-8,24-12,27-12,23-12,17-9,11-14,15-10,9-15,11-15,9-16,8-19,8-24,7-26,5-27,3-33,2-85,1-26,1-30,3-19,5-16,8-10,7-9,8-9,14-5,13-2,12v13l3,14l5,13l10,16l10,11l11,9l12,9l15,9l16,8l15,6l20,6l12,2h31l18-4l17-7l17-9l21-16l15-13l12-11l53-53l7-8l10-9l22-22l8-7l14-13l11-9l12-11l17-13l15-12l18-13l15-10l22-14l26-15l19-9l24-9l24-7l13-2h27l15,4l15,8l10,9l6,7l8,14l6,18l3,15l1,9v33l-2,19-5,25-7,27-10,30-11,26-13,25-10,17-8,12-10,14-11,13-7,8-9,10-13,13-14,11-17,12-16,9-16,7-20,6-16,3h-35l-17-3-18-6-19-9-18-11-12-9-11-9-12-11-14-14-9-11-12-14l1-3l21-7l28-11l23-12l12-8l17-12l16-13l10-9l12-12l18-22l8-11l13-21l8-16l11-23l10-30l3-12-13,5-22,11-21,12-20,14-16,12-11,9-14,12-8,8-8,7-9,9-7,8-9,10-7,8-11,13-11,14-9,11-11,13-9,11-14,17-11,12-7,8-14,15-19,19-8,7-14,12-10,8-19,14-13,9-18,11-16,9-28,13-21,8-27,7-30,5-16,1h-15l-19-2-20-4-20-6-23-10-18-11-16-12-10-9-8-7-11-12-10-12-10-15-10-18-8-17-7-19-7-25-4-26-1-10v-27l3-23l5-21l8-21l8-17l9-15l11-15l12-14l7-7l11-9l10-8l20-12l15-8l19-8l23-7l24-5l21-3l24-2h51l36,3l31,4l29,5l41,8l34,4l13,1h26l26-3l19-4l20-6l21-9l15-9l11-9l13-12l9-11l8-11l6-10l9-21l7-22l5-26l2-18l3-45l4-28l6-26l7-20l8-16l10-14l11-11l13-8L-4,1L0,0Z" transform="translate(1311 650)" fill="#ffffff"/><path d="M0,0h37L63,3L88,9l20,7l19,9l14,9l10,8l12,11l10,11l12,17l9,16l8,19l6,18l4,20l1,7v26l-3,19-5,17-8,20-10,19-10,14-11,14-12,13-16,16-11,9-12,10-18,12-18,10-19,8-18,5-20,3-27,1-28-2-28-5-64-16-21-5-26-4-14-1h-17l-23,3-21,6-17,8-12,9-10,9-7,10-8,16-7,21-7,36-3,6h-32l-26-3-26-6-22-8-17-8-12-8-10-8-12-11-10-12-10-16-7-17-4-18v-29l3-14l7-17l9-13l12-13l12-9l17-9l21-7l20-4l9-1h38l30,4l31,7l28,8l29,11l34,15l31,12l37,14l23,8l23,7l34,8l31,5l18,2h32l19-3l18-6l12-7l8-7l7-10l5-13l2-10v-9l-3-14-6-15-8-12-9-10-12-9-15-8-21-7-21-3-13-1h-22l-24,2-23,4-26,7-25,9-18,8-25,13-24,16h-2l-2-5-4-24-1-10v-35l3-20l5-19l8-21l9-17l10-14l14-17l11-11l14-11l19-13l12-7l23-10L-52,9l26-6L0,0Z" transform="translate(1028 494)" fill="#ffffff"/><path d="M0,0h16L31,2L43,6l13,7L72,25l8,9L90,51l5,13l3,15v21l-3,16-7,17-7,11-12,13-12,9-15,8-18,5-7,1h-20l-15-3-13-5-12-7-10-8-12-12-7-11-7-15-3-11-1-19l1-15l4-15l8-16l7-11l12-12l15-10l11-5l14-4L0,0Z" transform="translate(1050 1319)" fill="#ffffff"/></svg>
